<?xml version="1.0" encoding="UTF-8" standalone="no"?>
<svg
   xmlns:dc="http://purl.org/dc/elements/1.1/"
   xmlns:cc="http://creativecommons.org/ns#"
   xmlns:rdf="http://www.w3.org/1999/02/22-rdf-syntax-ns#"
   xmlns:svg="http://www.w3.org/2000/svg"
   xmlns="http://www.w3.org/2000/svg"
   id="svg15"
   version="1.1"
   viewBox="0 0 20 24"
   height="24"
   width="20">
  <metadata
     id="metadata19">
    <rdf:RDF>
      <cc:Work
         rdf:about="">
        <dc:format>image/svg+xml</dc:format>
        <dc:type
           rdf:resource="http://purl.org/dc/dcmitype/StillImage" />
        <dc:title>platform-android</dc:title>
      </cc:Work>
    </rdf:RDF>
  </metadata>
  <!-- Generator: Sketch 47.1 (45422) - http://www.bohemiancoding.com/sketch -->
  <title
     id="title2">platform-android</title>
  <desc
     id="desc4">Created with Sketch.</desc>
  <defs
     id="defs6" />
  <path
     style="fill:#000000;fill-rule:nonzero;stroke:none;stroke-width:1"
     id="path9"
     d="m 4,18 c 0,0.55 0.45,1 1,1 h 1 v 3.5 C 6,23.33 6.67,24 7.5,24 8.33,24 9,23.33 9,22.5 V 19 h 2 v 3.5 c 0,0.83 0.67,1.5 1.5,1.5 0.83,0 1.5,-0.67 1.5,-1.5 V 19 h 1 c 0.55,0 1,-0.45 1,-1 V 8 H 4 Z M 1.5,8 C 0.67,8 0,8.67 0,9.5 v 7 C 0,17.33 0.67,18 1.5,18 2.33,18 3,17.33 3,16.5 v -7 C 3,8.67 2.33,8 1.5,8 Z m 17,0 C 17.67,8 17,8.67 17,9.5 v 7 c 0,0.83 0.67,1.5 1.5,1.5 0.83,0 1.5,-0.67 1.5,-1.5 v -7 C 20,8.67 19.33,8 18.5,8 Z m -4.97,-5.84 1.3,-1.3 c 0.2,-0.2 0.2,-0.51 0,-0.71 -0.2,-0.2 -0.51,-0.2 -0.71,0 L 12.64,1.63 C 11.85,1.23 10.95,1 10,1 9.04,1 8.14,1.23 7.34,1.63 L 5.85,0.15 c -0.2,-0.2 -0.51,-0.2 -0.71,0 -0.2,0.2 -0.2,0.51 0,0.71 L 6.45,2.17 C 4.97,3.26 4,5.01 4,7 H 16 C 16,5.01 15.03,3.25 13.53,2.16 Z M 8,5 H 7 V 4 h 1 z m 5,0 H 12 V 4 h 1 z" />
</svg>
