<?xml version="1.0" encoding="UTF-8" standalone="no"?>
<svg
   xmlns:dc="http://purl.org/dc/elements/1.1/"
   xmlns:cc="http://creativecommons.org/ns#"
   xmlns:rdf="http://www.w3.org/1999/02/22-rdf-syntax-ns#"
   xmlns:svg="http://www.w3.org/2000/svg"
   xmlns="http://www.w3.org/2000/svg"
   id="svg13"
   version="1.1"
   viewBox="0 0 21 24"
   height="24px"
   width="21px">
  <metadata
     id="metadata17">
    <rdf:RDF>
      <cc:Work
         rdf:about="">
        <dc:format>image/svg+xml</dc:format>
        <dc:type
           rdf:resource="http://purl.org/dc/dcmitype/StillImage" />
        <dc:title>platform-apple</dc:title>
      </cc:Work>
    </rdf:RDF>
  </metadata>
  <!-- Generator: Sketch 47.1 (45422) - http://www.bohemiancoding.com/sketch -->
  <title
     id="title2">platform-apple</title>
  <desc
     id="desc4">Created with Sketch.</desc>
  <defs
     id="defs6" />
  <path
     d="m 20.184151,18.703287 c -0.362952,0.838493 -0.792567,1.610321 -1.29033,2.319929 -0.678499,0.967379 -1.234037,1.636988 -1.662172,2.008829 -0.663684,0.610352 -1.374773,0.922935 -2.136232,0.940712 -0.54665,0 -1.205889,-0.155551 -1.973273,-0.471097 -0.769903,-0.314065 -1.477437,-0.469615 -2.124381,-0.469615 -0.678498,0 -1.4061795,0.15555 -2.1845265,0.469615 C 8.0337043,23.817206 7.4057233,23.981646 6.9255897,23.997941 6.1953895,24.029052 5.4675597,23.70758 4.7410631,23.032045 4.2773734,22.627612 3.6973909,21.9343 3.0025971,20.952107 2.2571382,19.90325 1.6442678,18.686991 1.1641342,17.300366 0.6499275,15.802634 0.3921575,14.352307 0.3921575,12.948201 c 0,-1.608396 0.3475451,-2.9956129 1.0436722,-4.1580963 0.5470945,-0.9337496 1.2749244,-1.6703199 2.1858598,-2.2110443 0.9109354,-0.5407244 1.895202,-0.8162716 2.95517,-0.8339007 0.5799824,0 1.340552,0.179402 2.285709,0.5319839 0.94249,0.3537671 1.5476565,0.5331691 1.8129815,0.5331691 0.198364,0 0.87064,-0.2097715 2.01031,-0.627981 1.077745,-0.3878402 1.987347,-0.5484279 2.732509,-0.4851705 2.019199,0.162958 3.536191,0.9589339 4.545048,2.3929647 -1.80587,1.0941891 -2.699177,2.6267351 -2.681399,4.5927501 0.0163,1.531361 0.571833,2.805693 1.663652,3.817514 0.494801,0.469616 1.047376,0.832568 1.662173,1.090338 -0.13333,0.386655 -0.274065,0.757014 -0.423692,1.112559 z M 15.55318,0.48013373 c 0,1.20027477 -0.438505,2.32096677 -1.312553,3.35826877 -1.054783,1.2331479 -2.330596,1.945719 -3.71411,1.8332779 -0.01763,-0.1439956 -0.02785,-0.2955466 -0.02785,-0.454801 0,-1.1522615 0.501615,-2.3854094 1.392403,-3.3936752 C 12.335797,1.3127011 12.90141,0.88822503 13.587315,0.54961303 14.271737,0.21605273 14.919125,0.03158423 15.527996,3.1120437e-8 15.545776,0.16045443 15.553176,0.32092363 15.553176,0.48011883 Z"
     id="Shape"
     style="fill:#000000;fill-rule:nonzero;stroke:none;stroke-width:1" />
</svg>
